<?xml version="1.0" encoding="utf-8"?>
<!DOCTYPE svg PUBLIC "-//W3C//DTD SVG 1.1//EN" "http://www.w3.org/Graphics/SVG/1.1/DTD/svg11.dtd">
<svg xmlns="http://www.w3.org/2000/svg" version="1.1" baseProfile="full" width="142" height="50"
     viewBox="0 0 142.00 50.00" enable-background="new 0 0 142.00 50.00" xml:space="preserve">
	<path fill="#4D4D4D" fill-opacity="1" stroke-linejoin="round"
          d="M 46.2792,22.6868C 46.2792,22.1615 46.194,21.6835 46.0262,21.2481C 45.8583,20.8156 45.6191,20.4449 45.3098,20.1372C 44.9996,19.8331 44.6311,19.5945 44.2018,19.4237C 43.7712,19.2567 43.2956,19.1713 42.7743,19.1713L 36.8676,19.1713L 36.8676,28.616L 42.7743,28.616C 43.2956,28.616 43.7712,28.5343 44.2018,28.3644C 44.6311,28.1949 44.9996,27.9563 45.3098,27.6498C 45.6191,27.3441 45.8583,26.9766 46.0262,26.5461C 46.194,26.1144 46.2792,25.6339 46.2792,25.1042M 48.9586,25.1042C 48.9586,26.0059 48.8021,26.8363 48.4895,27.5953C 48.1782,28.3518 47.7468,29.0054 47.1975,29.5518C 46.6457,30.1014 45.9933,30.5302 45.2388,30.8404C 44.4819,31.1506 43.6609,31.3063 42.7743,31.3063L 35.5391,31.3063C 35.3453,31.3063 35.1669,31.2709 35.0035,31.2022C 34.8369,31.1331 34.6946,31.038 34.5754,30.918C 34.4541,30.7985 34.3621,30.6559 34.2912,30.4876C 34.2235,30.3237 34.1882,30.1433 34.1882,29.9518L 34.1882,17.838C 34.1882,17.653 34.2235,17.4766 34.2912,17.3115C 34.3621,17.1457 34.4541,17.0018 34.5754,16.8766C 34.6946,16.7538 34.8369,16.6567 35.0035,16.588C 35.1669,16.5201 35.3453,16.4835 35.5391,16.4835L 42.7743,16.4835C 43.6609,16.4835 44.4819,16.6404 45.2388,16.9502C 45.9933,17.2603 46.6457,17.6896 47.1975,18.2355C 47.7468,18.7851 48.1782,19.4388 48.4895,20.2002C 48.8021,20.9615 48.9586,21.7896 48.9586,22.6868L 48.9586,25.1042 Z "/>
    <path fill="#4D4D4D" fill-opacity="1" stroke-linejoin="round"
          d="M 65.7606,21.4448C 65.7606,22.0587 65.6835,22.605 65.5286,23.0879C 65.3734,23.57 65.1702,23.9965 64.9161,24.3652C 64.6606,24.7335 64.3643,25.0469 64.0237,25.3099C 63.6819,25.5704 63.3308,25.7871 62.9668,25.9558C 62.6019,26.1253 62.2334,26.2469 61.86,26.3229C 61.4845,26.3989 61.1322,26.4359 60.8022,26.4359L 59.7209,26.4359L 59.7209,31.3062L 57.0196,31.3062L 57.0196,26.4359L 55.9477,26.4359C 55.6185,26.4359 55.2665,26.3989 54.8907,26.3229C 54.5177,26.2469 54.1455,26.1253 53.7782,25.9558C 53.4097,25.7871 53.0582,25.5704 52.7225,25.3099C 52.3868,25.0469 52.088,24.7335 51.8289,24.3652C 51.5723,23.9965 51.366,23.5688 51.2119,23.0843C 51.0566,22.5965 50.98,22.0505 50.98,21.4448L 50.98,16.4835L 53.6602,16.4835L 53.6602,21.4448C 53.6602,21.7956 53.715,22.1115 53.8248,22.3895C 53.9343,22.668 54.0896,22.9091 54.2878,23.1103C 54.4873,23.3078 54.7298,23.4619 55.0144,23.5688C 55.3002,23.6761 55.6185,23.7298 55.9687,23.7298L 60.8022,23.7298C 61.0564,23.6867 61.3179,23.6343 61.5859,23.5688C 61.8543,23.503 62.0979,23.3908 62.3173,23.2326C 62.5378,23.0737 62.7187,22.8542 62.8634,22.5713C 63.0089,22.2891 63.0803,21.9135 63.0803,21.4448L 63.0803,16.4835L 65.7606,16.4835L 65.7606,21.4448 Z "/>
    <path fill="#4D4D4D" fill-opacity="1" stroke-linejoin="round"
          d="M 82.9032,29.954C 82.9032,30.1459 82.8671,30.326 82.7946,30.4906C 82.7224,30.6561 82.6255,30.7983 82.5075,30.9203C 82.3879,31.0406 82.244,31.1353 82.0798,31.2044C 81.9144,31.2731 81.738,31.3085 81.5536,31.3085C 81.3881,31.3085 81.2215,31.278 81.0537,31.215C 80.885,31.1528 80.7346,31.0512 80.6053,30.9142L 70.8053,20.867L 70.8053,31.3061L 68.1247,31.3061L 68.1247,17.817C 68.1247,17.5422 68.2017,17.293 68.3558,17.0683C 68.5118,16.8439 68.7093,16.6788 68.9497,16.5678C 69.2039,16.4638 69.465,16.4394 69.7334,16.4894C 70.0006,16.5422 70.2313,16.6662 70.4238,16.8674L 80.2157,26.9227L 80.2157,16.4837L 82.8939,16.4837L 82.9032,29.954 Z "/>
    <path fill="#4D4D4D" fill-opacity="1" stroke-linejoin="round"
          d="M 87.9865,24.9789L 97.4085,24.9789L 97.4085,19.1712L 92.6987,19.1712C 92.6148,19.1712 92.4409,19.1842 92.1773,19.2074C 91.9138,19.2334 91.6069,19.2927 91.2603,19.3887C 90.9128,19.4858 90.5475,19.6334 90.1616,19.8342C 89.7768,20.0342 89.4233,20.309 89.1014,20.661C 88.7783,21.0122 88.5123,21.4492 88.3023,21.9781C 88.0927,22.5045 87.9865,23.1427 87.9865,23.8948M 100.088,31.3061L 97.4085,31.3061L 97.4085,27.6667L 87.9865,27.6667L 87.9865,31.3061L 85.3074,31.3061L 85.3074,23.8948C 85.3074,22.813 85.4927,21.8167 85.8649,20.909C 86.2358,19.998 86.7511,19.2167 87.4112,18.563C 88.0704,17.9082 88.8508,17.3984 89.7488,17.0309C 90.6505,16.6683 91.6324,16.4838 92.6987,16.4838L 98.7371,16.4838C 98.9228,16.4838 99.0987,16.52 99.2642,16.5878C 99.43,16.6565 99.5723,16.7537 99.6959,16.8765C 99.8204,17.0017 99.9165,17.1456 99.9842,17.3118C 100.054,17.4765 100.088,17.6533 100.088,17.8378L 100.088,31.3061 Z "/>
    <path fill="#4D4D4D" fill-opacity="1" stroke-linejoin="round"
          d="M 119.701,31.3061L 117.001,31.3061L 117.001,22.4785L 112.264,30.6874C 112.146,30.9012 111.983,31.0626 111.774,31.174C 111.565,31.285 111.339,31.3386 111.099,31.3386C 110.864,31.3386 110.647,31.285 110.444,31.174C 110.241,31.0626 110.083,30.9012 109.966,30.6874L 105.178,22.4785L 105.178,31.3061L 102.498,31.3061L 102.498,17.8167C 102.498,17.5081 102.59,17.2321 102.772,16.9911C 102.953,16.7504 103.193,16.5878 103.488,16.5045C 103.631,16.4707 103.776,16.4581 103.921,16.4695C 104.067,16.4801 104.204,16.5106 104.338,16.5618C 104.472,16.6146 104.593,16.6858 104.704,16.7797C 104.813,16.872 104.906,16.9841 104.983,17.115L 111.082,27.5634L 117.187,17.115C 117.344,16.8533 117.563,16.6659 117.839,16.5573C 118.118,16.4476 118.409,16.4297 118.713,16.5045C 119.001,16.5878 119.236,16.7504 119.423,16.9911C 119.609,17.2321 119.701,17.5081 119.701,17.8167L 119.701,31.3061 Z "/>
    <rect x="122.133" y="16.4884" fill="#4D4D4D" fill-opacity="1" stroke-linejoin="round" width="2.67905" height="14.8224"/>
    <path fill="#4D4D4D" fill-opacity="1" stroke-linejoin="round"
          d="M 140.664,31.3061L 130.997,31.3061C 130.749,31.3061 130.483,31.2756 130.199,31.2171C 129.911,31.1585 129.632,31.0687 129.352,30.9443C 129.074,30.8195 128.808,30.6606 128.555,30.4618C 128.3,30.265 128.074,30.0289 127.879,29.7484C 127.682,29.4695 127.527,29.1467 127.411,28.7772C 127.293,28.4102 127.235,27.9943 127.235,27.5321L 127.235,20.2565C 127.235,20.0098 127.264,19.7419 127.323,19.4553C 127.38,19.1703 127.471,18.8882 127.596,18.6085C 127.72,18.3293 127.88,18.0626 128.08,17.8073C 128.28,17.5528 128.518,17.328 128.798,17.1305C 129.074,16.9341 129.396,16.7772 129.76,16.6614C 130.125,16.5435 130.536,16.4837 130.997,16.4837L 140.664,16.4837L 140.664,19.1711L 130.997,19.1711C 130.645,19.1711 130.378,19.2659 130.194,19.4508C 130.006,19.6378 129.914,19.9126 129.914,20.2776L 129.914,27.5321C 129.914,27.8768 130.009,28.1439 130.199,28.3333C 130.387,28.5224 130.654,28.6163 130.997,28.6163L 140.664,28.6163L 140.664,31.3061 Z "/>
    <path fill="#4D4D4D" fill-opacity="1" stroke-linejoin="round"
          d="M 14.7083,45.3964C 14.7083,45.9273 14.6418,46.4041 14.5077,46.8277C 14.3735,47.2521 14.1963,47.6277 13.9757,47.9505C 13.7552,48.2745 13.499,48.5493 13.2026,48.7785C 12.9062,49.0054 12.6005,49.1903 12.2855,49.3363C 11.9685,49.4814 11.6466,49.5879 11.3198,49.6566C 10.993,49.7257 10.6865,49.7607 10.3971,49.7607L 0.0514238,49.7607L 0.0514238,47.0708L 10.3971,47.0708C 10.914,47.0708 11.3129,46.9188 11.5987,46.6172C 11.8846,46.3131 12.0281,45.9062 12.0281,45.3964C 12.0281,45.1485 11.9883,44.9216 11.9133,44.7143C 11.8375,44.5054 11.7293,44.3273 11.5882,44.1753C 11.4471,44.0233 11.2744,43.9062 11.0725,43.8245C 10.8698,43.7415 10.6448,43.7005 10.3971,43.7005L 4.22933,43.7005C 3.79633,43.7005 3.32766,43.6237 2.82615,43.468C 2.32464,43.3123 1.85921,43.0619 1.42865,42.7167C 0.999714,42.372 0.641318,41.9216 0.355898,41.3615C 0.0700724,40.805 -0.0726361,40.1216 -0.0726361,39.3172C -0.0726361,38.509 0.0700724,37.8285 0.355898,37.2741C 0.641318,36.7184 0.999714,36.2659 1.42865,35.9176C 1.85921,35.57 2.32464,35.3176 2.82615,35.1619C 3.32766,35.0074 3.79633,34.9294 4.22933,34.9294L 13.3567,34.9294L 13.3567,37.6188L 4.22933,37.6188C 3.71971,37.6188 3.3228,37.7733 3.03738,38.0846C 2.75155,38.3944 2.60925,38.805 2.60925,39.3172C 2.60925,39.8318 2.75155,40.2395 3.03738,40.5395C 3.3228,40.8399 3.71971,40.9907 4.22933,40.9907L 10.3971,40.9907L 10.4173,40.9907C 10.7076,40.9968 11.0133,41.0375 11.3364,41.1098C 11.6583,41.1826 11.981,41.2948 12.2997,41.4456C 12.6204,41.5976 12.9249,41.7895 13.2119,42.0196C 13.5022,42.2505 13.7576,42.5285 13.9818,42.8513C 14.2044,43.1765 14.3828,43.5485 14.5137,43.9696C 14.6431,44.3891 14.7083,44.8639 14.7083,45.3964 Z "/>
    <path fill="#4D4D4D" fill-opacity="1" stroke-linejoin="round"
          d="M 29.7781,40.9288C 29.7781,40.3975 29.693,39.9174 29.5239,39.4853C 29.3557,39.0552 29.1193,38.6853 28.8136,38.3792C 28.5079,38.0731 28.1382,37.8341 27.7089,37.6658C 27.2795,37.4975 26.8072,37.4122 26.2919,37.4122L 22.6597,37.4122C 22.1383,37.4122 21.6611,37.4975 21.2318,37.6658C 20.8028,37.8341 20.4331,38.0731 20.1229,38.3792C 19.8136,38.6853 19.5756,39.0552 19.4066,39.4853C 19.2383,39.9174 19.1544,40.3975 19.1544,40.9288L 19.1544,43.7613C 19.1544,44.2943 19.2383,44.7739 19.4066,45.2044C 19.5756,45.6349 19.8136,46.0044 20.1229,46.3105C 20.4331,46.617 20.8028,46.8544 21.2318,47.0239C 21.6611,47.1939 22.1383,47.278 22.6597,47.278L 26.2708,47.278C 26.7934,47.278 27.2694,47.1939 27.6987,47.0239C 28.1277,46.8544 28.4974,46.617 28.8088,46.3105C 29.1169,46.0044 29.3557,45.6349 29.5239,45.2044C 29.693,44.7739 29.7781,44.2943 29.7781,43.7613M 32.4596,43.7613C 32.4596,44.6662 32.3035,45.4955 31.9954,46.2536C 31.6853,47.0126 31.2559,47.6674 30.7057,48.2195C 30.156,48.7715 29.5041,49.2008 28.7504,49.5061C 27.9995,49.8134 27.1781,49.9666 26.2919,49.9666L 22.6597,49.9666C 21.773,49.9666 20.9508,49.8134 20.1951,49.5061C 19.4394,49.2008 18.7859,48.7715 18.2353,48.2195C 17.6859,47.6674 17.2534,47.0126 16.9408,46.2536C 16.6282,45.4955 16.4717,44.6662 16.4717,43.7613L 16.4717,40.9288C 16.4717,40.0329 16.6282,39.2024 16.9408,38.4422C 17.2534,37.68 17.6859,37.0248 18.2353,36.4764C 18.7859,35.9292 19.4394,35.4987 20.1951,35.189C 20.9508,34.88 21.773,34.7231 22.6597,34.7231L 26.2919,34.7231C 27.1781,34.7231 27.9995,34.88 28.7504,35.189C 29.5041,35.4987 30.156,35.9292 30.7057,36.4764C 31.2559,37.0248 31.6853,37.68 31.9954,38.4422C 32.3035,39.2024 32.4596,40.0329 32.4596,40.9288L 32.4596,43.7613 Z "/>
    <path fill="#4D4D4D" fill-opacity="1" stroke-linejoin="round"
          d="M 48.6937,49.7608L 36.4604,49.7608C 36.2691,49.7608 36.0895,49.7258 35.9249,49.6567C 35.7594,49.5876 35.6159,49.4941 35.4971,49.3726C 35.3767,49.2535 35.2823,49.1091 35.2125,48.9433C 35.1448,48.7787 35.1112,48.5986 35.1112,48.4055L 35.1112,34.9295L 37.7927,34.9295L 37.7927,47.0709L 48.6937,47.0709L 48.6937,49.7608 Z "/>
    <path fill="#4D4D4D" fill-opacity="1" stroke-linejoin="round"
          d="M 65.5448,48.4055C 65.5448,48.5986 65.5099,48.7787 65.4422,48.9433C 65.3721,49.1091 65.2764,49.2535 65.154,49.3726C 65.0295,49.4941 64.8848,49.5876 64.7202,49.6567C 64.5547,49.7258 64.3796,49.7608 64.1939,49.7608L 58.1486,49.7608C 57.5782,49.7608 57.0009,49.6978 56.4166,49.5738C 55.832,49.4498 55.2652,49.2591 54.7195,49.0006C 54.1734,48.7409 53.6594,48.4128 53.1785,48.0136C 52.6969,47.6136 52.2748,47.1388 51.9152,46.5913C 51.5536,46.0421 51.2694,45.4152 51.0638,44.7071C 50.8562,44.0022 50.7549,43.214 50.7549,42.3461L 50.7549,34.9295L 53.4364,34.9295L 53.4364,42.3461C 53.4364,43.1039 53.5414,43.7449 53.7514,44.2689C 53.9602,44.7929 54.2261,45.2299 54.5489,45.5811C 54.8732,45.9343 55.2279,46.2091 55.6119,46.4091C 55.9966,46.6104 56.3639,46.7575 56.7102,46.8535C 57.058,46.9506 57.3637,47.01 57.6285,47.036C 57.8932,47.0591 58.0671,47.0709 58.1486,47.0709L 62.8645,47.0709L 62.8645,34.9295L 65.5448,34.9295L 65.5448,48.4055 Z "/>
    <path fill="#4D4D4D" fill-opacity="1" stroke-linejoin="round"
          d="M 82.712,37.6188L 76.8029,37.6188L 76.8029,49.7607L 74.1202,49.7607L 74.1202,37.6188L 68.2006,37.6188L 68.2006,34.9294L 82.712,34.9294L 82.712,37.6188 Z "/>
    <rect x="85.321" y="34.9294" fill="#4D4D4D" fill-opacity="1" stroke-linejoin="round" width="2.68149" height="14.8313"/>
    <path fill="#4D4D4D" fill-opacity="1" stroke-linejoin="round"
          d="M 104.24,40.9288C 104.24,40.3975 104.158,39.9174 103.989,39.4853C 103.819,39.0552 103.581,38.6853 103.276,38.3792C 102.97,38.0731 102.602,37.8341 102.173,37.6658C 101.742,37.4975 101.271,37.4122 100.755,37.4122L 97.1226,37.4122C 96.6013,37.4122 96.1241,37.4975 95.6939,37.6658C 95.2646,37.8341 94.8948,38.0731 94.5867,38.3792C 94.277,38.6853 94.0378,39.0552 93.8699,39.4853C 93.7017,39.9174 93.6165,40.3975 93.6165,40.9288L 93.6165,43.7613C 93.6165,44.2943 93.7017,44.7739 93.8699,45.2044C 94.0378,45.6349 94.277,46.0044 94.5867,46.3105C 94.8948,46.617 95.2646,46.8544 95.6939,47.0239C 96.1241,47.1939 96.6013,47.278 97.1226,47.278L 100.734,47.278C 101.257,47.278 101.732,47.1939 102.162,47.0239C 102.592,46.8544 102.962,46.617 103.271,46.3105C 103.58,46.0044 103.819,45.6349 103.989,45.2044C 104.158,44.7739 104.24,44.2943 104.24,43.7613M 106.923,43.7613C 106.923,44.6662 106.766,45.4955 106.458,46.2536C 106.149,47.0126 105.718,47.6674 105.169,48.2195C 104.618,48.7715 103.968,49.2008 103.214,49.5061C 102.46,49.8134 101.64,49.9666 100.755,49.9666L 97.1226,49.9666C 96.2364,49.9666 95.415,49.8134 94.6581,49.5061C 93.9023,49.2008 93.248,48.7715 92.6986,48.2195C 92.1481,47.6674 91.7175,47.0126 91.4053,46.2536C 91.0911,45.4955 90.9363,44.6662 90.9363,43.7613L 90.9363,40.9288C 90.9363,40.0329 91.0911,39.2024 91.4053,38.4422C 91.7175,37.68 92.1481,37.0248 92.6986,36.4764C 93.248,35.9292 93.9023,35.4987 94.6581,35.189C 95.415,34.88 96.2364,34.7231 97.1226,34.7231L 100.755,34.7231C 101.64,34.7231 102.46,34.88 103.214,35.189C 103.968,35.4987 104.618,35.9292 105.169,36.4764C 105.718,37.0248 106.149,37.68 106.458,38.4422C 106.766,39.2024 106.923,40.0329 106.923,40.9288L 106.923,43.7613 Z "/>
    <path fill="#4D4D4D" fill-opacity="1" stroke-linejoin="round"
          d="M 124.875,48.6778C 124.875,48.8709 124.838,49.0498 124.765,49.2156C 124.695,49.3798 124.597,49.5233 124.478,49.6453C 124.356,49.7656 124.214,49.8615 124.049,49.929C 123.885,49.9981 123.71,50.0323 123.523,50.0323C 123.359,50.0323 123.191,50.0018 123.023,49.9396C 122.854,49.8778 122.704,49.7774 122.575,49.6392L 112.776,39.3827L 112.776,49.8262L 110.093,49.8262L 110.093,36.1445C 110.093,35.8668 110.171,35.6193 110.325,35.3945C 110.482,35.1689 110.679,35.0026 110.92,34.8928C 111.173,34.7888 111.435,34.7632 111.703,34.8144C 111.972,34.866 112.202,34.9924 112.395,35.1908L 122.193,45.4416L 122.193,34.9949L 124.875,34.9949L 124.875,48.6778 Z "/>
    <path fill="#4D4D4D" fill-opacity="1" stroke-linejoin="round"
          d="M 142.073,45.3964C 142.073,45.9273 142.004,46.4041 141.871,46.8277C 141.737,47.2521 141.56,47.6277 141.34,47.9505C 141.119,48.2745 140.861,48.5493 140.564,48.7785C 140.271,49.0054 139.966,49.1903 139.648,49.3363C 139.331,49.4814 139.01,49.5879 138.683,49.6566C 138.357,49.7257 138.048,49.7607 137.76,49.7607L 127.415,49.7607L 127.415,47.0708L 137.76,47.0708C 138.276,47.0708 138.676,46.9188 138.963,46.6172C 139.247,46.3131 139.389,45.9062 139.389,45.3964C 139.389,45.1485 139.352,44.9216 139.277,44.7143C 139.2,44.5054 139.092,44.3273 138.951,44.1753C 138.81,44.0233 138.639,43.9062 138.436,43.8245C 138.232,43.7415 138.008,43.7005 137.76,43.7005L 131.592,43.7005C 131.159,43.7005 130.692,43.6237 130.189,43.468C 129.688,43.3123 129.221,43.0619 128.793,42.7167C 128.362,42.372 128.004,41.9216 127.72,41.3615C 127.434,40.805 127.291,40.1216 127.291,39.3172C 127.291,38.509 127.434,37.8285 127.72,37.2741C 128.004,36.7184 128.362,36.2659 128.793,35.9176C 129.221,35.57 129.688,35.3176 130.189,35.1619C 130.692,35.0074 131.159,34.9294 131.592,34.9294L 140.721,34.9294L 140.721,37.6188L 131.592,37.6188C 131.084,37.6188 130.686,37.7733 130.402,38.0846C 130.116,38.3944 129.972,38.805 129.972,39.3172C 129.972,39.8318 130.116,40.2395 130.402,40.5395C 130.686,40.8399 131.084,40.9907 131.592,40.9907L 137.76,40.9907L 137.781,40.9907C 138.068,40.9968 138.375,41.0375 138.698,41.1098C 139.023,41.1826 139.342,41.2948 139.662,41.4456C 139.985,41.5976 140.287,41.7895 140.576,42.0196C 140.865,42.2505 141.119,42.5285 141.344,42.8513C 141.567,43.1765 141.746,43.5485 141.874,43.9696C 142.006,44.3891 142.073,44.8639 142.073,45.3964 Z "/>
    <path fill="#32C5F4" fill-opacity="1" stroke-linejoin="round"
          d="M 9.44552,21.4845C 9.99609,21.267 10.4684,20.963 10.8649,20.5687C 11.2606,20.1768 11.5659,19.7056 11.7816,19.1548C 11.9985,18.6028 12.1059,17.9865 12.1059,17.3069L 12.1059,14.2101C 12.1059,13.5378 11.9985,12.926 11.7816,12.3695C 11.5659,11.8126 11.2606,11.3402 10.8649,10.9459C 10.4684,10.5552 9.99609,10.2487 9.44552,10.0325C 8.89495,9.81744 8.286,9.7085 7.61665,9.7085L 1.08688,9.7085C 0.579693,10.9459 0.228596,12.265 0.0514238,13.6369L 0.0514238,17.6857C 0.236703,19.1292 0.614559,20.5138 1.16391,21.8073L 7.61665,21.8073C 8.286,21.8073 8.89495,21.6996 9.44552,21.4845 Z "/>
    <path fill="#32C5F4" fill-opacity="1" stroke-linejoin="round"
          d="M 19.3775,10.3041C 19.0134,10.7004 18.8301,11.2256 18.8301,11.8793C 18.8301,12.5411 19.0134,13.063 19.3775,13.4476C 19.7436,13.8325 20.2524,14.0228 20.9031,14.0228L 28.7983,14.0228L 28.8255,14.0228C 29.1948,14.0325 29.5869,14.0837 30.0012,14.176C 30.3953,14.265 30.7893,14.402 31.1802,14.5841C 31.0634,12.8687 30.6726,11.2289 30.0511,9.70853L 20.9031,9.70853C 20.2524,9.70853 19.7436,9.9061 19.3775,10.3041 Z "/>
    <path fill="#32C5F4" fill-opacity="1" stroke-linejoin="round"
          d="M 15.5562,25.2502L 15.5562,21.8072L 28.7986,21.8072C 29.3512,21.8072 29.7935,21.6633 30.1397,21.3921C 30.4231,20.6657 30.6554,19.9128 30.8302,19.1372C 30.8071,19.0181 30.7803,18.8998 30.7406,18.7897C 30.6437,18.5246 30.5038,18.2966 30.3242,18.1023C 30.1434,17.9059 29.9216,17.7559 29.6625,17.6531C 29.4039,17.5454 29.1169,17.4917 28.7986,17.4917L 20.9029,17.4917C 20.3491,17.4917 19.7495,17.3933 19.1089,17.195C 18.4651,16.9945 17.8692,16.6754 17.3186,16.2332C 16.7692,15.7925 16.3107,15.2157 15.947,14.5002C 15.5797,13.7856 15.3977,12.9108 15.3977,11.8791C 15.3977,10.8478 15.5797,9.97544 15.947,9.26569C 16.3107,8.55431 16.7692,7.97667 17.3186,7.53114C 17.8692,7.0852 18.4651,6.76284 19.1089,6.56488C 19.7495,6.3661 20.3491,6.26691 20.9029,6.26691L 28.1069,6.26691C 25.2527,2.44252 20.699,-0.0322762 15.5692,-0.0322762C 10.4401,-0.0322762 5.88682,2.44252 3.03142,6.26691L 7.61677,6.26691C 8.75155,6.26691 9.80444,6.46447 10.773,6.86325C 11.7395,7.25959 12.5747,7.80959 13.2806,8.51C 13.984,9.21162 14.537,10.0502 14.9367,11.0267C 15.3381,12.0011 15.5388,13.0616 15.5388,14.21L 15.5388,17.3067C 15.5388,18.4637 15.3381,19.5254 14.9367,20.4986C 14.537,21.4681 13.984,22.3043 13.2806,23.0051C 12.5747,23.708 11.7395,24.2576 10.773,24.6539C 9.80444,25.0515 8.75155,25.2502 7.61677,25.2502L 3.18305,25.2502C 6.04535,28.9624 10.5265,31.3555 15.5692,31.3555C 20.6114,31.3555 25.0926,28.9624 27.9553,25.2502L 15.5562,25.2502 Z "/>
</svg>
